<svg xmlns="http://www.w3.org/2000/svg" viewBox="0 0 377.59 49.94"><defs><style>.cls-1{fill:#ff353a;}</style></defs><title>Asset 1</title><g id="Layer_2" data-name="Layer 2"><g id="Layer_1-2" data-name="Layer 1"><path class="cls-1" d="M4.55,19.54c.64-2,1.21-3.92,2-5.73A2.86,2.86,0,0,1,8,12.3a1.54,1.54,0,0,1,2.08.94A27.82,27.82,0,0,1,13,23.17c.26,2.5.27,5,.42,7.53a6,6,0,0,0,.3,1.15,4.6,4.6,0,0,0,.82-1.23,80.79,80.79,0,0,1,2-7.83c2-5.44,4-10.93,7.26-15.83.34-.51.76-1,1.14-1.45.78-1,1.82-1.86,3.06-1.3s1.35,1.75,1.64,3c.78,3.46-.49,6.63-1,9.91-.77,5.2-2.51,10.28-2.15,15.63.07,1,.59,2,.71,3,.09.73.37,1.68-.9,1.92a1.59,1.59,0,0,1-2.09-1.51,98.57,98.57,0,0,1,.55-10.79c.49-4.09,1.41-8.13,2.07-12.2a34.27,34.27,0,0,0,.37-4.45A6.44,6.44,0,0,0,26.79,7c-.49.43-1.14.76-1.43,1.3a72.1,72.1,0,0,0-3.83,7.64c-1.75,4.47-3.33,9-4.75,13.6-.73,2.35-.95,4.86-1.48,7.28a3.85,3.85,0,0,1-.92,1.9c-.48.46-1.4.95-1.89.77a2.33,2.33,0,0,1-1-1.79c-.21-3.85-.13-7.73-.48-11.56a63.11,63.11,0,0,0-1.58-7.6c0-.17-.22-.29-.28-.46-.24-.65-.46-1.3-.69-2a9.24,9.24,0,0,0-1.21,1.83c-1,2.84-2.13,5.68-2.89,8.6a53.51,53.51,0,0,0-1,6.72A33.47,33.47,0,0,0,3,36.92c0,1-.31,1.76-1.37,1.42C1,38.12,0,37.39,0,36.85a49.92,49.92,0,0,1,.3-5.61c.13-2.06.22-4.13.39-6.19.22-2.65.57-5.3.73-8a6,6,0,0,0-.51-2.85A1.55,1.55,0,0,1,1.53,12c.47-.32,1.45-.68,1.62-.49a3.17,3.17,0,0,1,1,2c-.15,2-.57,4-.89,6,0,.23-.22.47-.18.68.08.55.25,1.09.38,1.64.25-.44.51-.87.75-1.31A4.37,4.37,0,0,0,4.55,19.54Z"/><path class="cls-1" d="M212,22.72c1.57-5.51,3-10.92,4.53-16.33.19-.68.53-1.32.75-2,.11-.34.26-.9.11-1a1.56,1.56,0,0,0-1.14-.26c-3.07.45-6.12,1.11-9.21,1.37a15.73,15.73,0,0,1-4.88-.67c-3.11-.76-5.93,0-8.73,1.27a6.33,6.33,0,0,1-2.22.11c.13-1-.77-2.33.74-2.94a10.19,10.19,0,0,1,3.55-1.11c2.67,0,5.33.49,8,.53a97.28,97.28,0,0,0,10.15-.29c1.74-.16,3.41-1.3,5.14-1.37a19.39,19.39,0,0,1,6.13.9c1.2.35,1.11,1.81.66,2.78a1.85,1.85,0,0,1-2.78.66c-1.64-1.33-2.14-.13-2.56.94a61,61,0,0,0-2.15,6.41c-.39,1.45.67,2.13,1.9,2,2.82-.2,5.63-.6,8.45-.92.55-.06,1.1-.17,1.65-.19,1.39-.06,2.16.78,1.74,2-.28.78-1.85,1.92-2.06,1.77-2.21-1.53-4.24.37-6.36.17-1.4-.13-2.85.59-4.29.67-3,.16-3.63.76-3.75,3.79,0,.26,0,.51,0,.77,0,2.18.75,2.69,2.79,1.67,1.19-.6,2-.51,2.57.65s-.3,2.33-1.59,2.8c-2.07.74-3.87-.29-5.76-.7S212,24.14,212,22.72Z"/><path class="cls-1" d="M351.93,6.75c.27-.85.59-1.49.81-2.17a1.85,1.85,0,0,1,2.82-1.15,2.89,2.89,0,0,1,.87,2.71c-1,2-1.14,4.35-3,6.15-1.17,1.11-1.29,3.59-1.34,5.47,0,.8,1.22,1.83,2.12,2.4a28.72,28.72,0,0,0,3.32,1.23c1.89.88,3.06,0,4-1.45a28.41,28.41,0,0,1,8.5-8.6c1.21-.74,2.17-1.86,3.32-2.7a5,5,0,0,1,2.23-1,2.22,2.22,0,0,1,1.87.78,2.3,2.3,0,0,1-.34,2.12,18,18,0,0,1-3.17,2,36.59,36.59,0,0,0-5.49,3.39,48.49,48.49,0,0,0-5.06,5.76,1.31,1.31,0,0,0,0,1.26c2.38,2.13,1.89,4.6.86,7.09-1.12,2.72-2.34,5.42-5.39,6.53-1.12.41-2.32.57-3.26-.56a2.76,2.76,0,0,1-.62-3.31c1.07-2.31,1.78-4.77,2.77-7.12.38-.89.42-1.29-.63-1.55-1.21-.29-2.38-.75-3.58-1.11-3.33-1-5.51-3.16-4.28-7.28.86-2.91,1.79-5.8,2.69-8.89m6.93,22.12c-.38,1.18-.81,2.34-1.13,3.54a1.09,1.09,0,0,0,.31,1,1.2,1.2,0,0,0,1-.12c1.8-1.09,3.39-5.11,2.85-7.19-.08-.32-.38-.76-.63-.79a1.13,1.13,0,0,0-.87.54C359.91,26.74,359.5,27.72,358.86,28.88Z"/><path class="cls-1" d="M173.55,5.59c.74,3-.58,5.41-1.58,7.9C170.43,17.34,168.5,21,167.2,25c-.62,1.86-1.21,4.27.91,5.91a2.4,2.4,0,0,0,1.8.42c.95-.23,2.14-.64,2.28.53a3.45,3.45,0,0,1-1.45,2.65c-1.41.92-2.95.27-4.07-.79-3-2.81-3.74-5.68-1.71-10.47,1.89-4.47,3.67-9,5.42-13.52a8.74,8.74,0,0,0,.2-2.45c-.58.58-1.4,1-1.7,1.75q-2.62,6-5,12.15a53.25,53.25,0,0,0-3.54,15.09c-.07.8.05,2.35-1.6,2.16-1.44-.17-1.5-1.28-1.41-2.4a68.08,68.08,0,0,1,3.6-16,52.41,52.41,0,0,1,6.41-13.49,11,11,0,0,1,1.62-1.82C170.86,2.89,172,3.13,173.55,5.59Z"/><path class="cls-1" d="M98.72,8.29A23.13,23.13,0,0,1,100,5.62a2.28,2.28,0,0,1,1.58-1A2.11,2.11,0,0,1,103,5.77a8.12,8.12,0,0,1,.79,2.93c.39,8.44-1.28,16.58-3.53,24.65-.42,1.5-.13,3.18-.33,4.75a12.91,12.91,0,0,1-.85,2.52,7.23,7.23,0,0,1-1.56-.69,1.24,1.24,0,0,1-.23-1C98,35,98.76,31.07,99.45,27.14c0-.18-.38-.62-.61-.64-2-.21-3.89,1.57-4.27,3.71-.49,2.78-1.23,5.51-.39,8.37.44,1.48-.94,2.08-1.78,2.86a1.4,1.4,0,0,1-1.33-.28,3.09,3.09,0,0,1-.67-2c.54-3.08,1.14-6.16,1.9-9.2q2.2-8.77,4.62-17.49a28.64,28.64,0,0,1,1.8-4.19M97.47,23.77c2-.49,3.54-1,3.28-3.69a6.56,6.56,0,0,1,0-1.14c.24-3,.52-6.06.71-9.1,0-.34-.37-.71-.58-1.07-.31.32-.75.58-.89,1-.64,1.72-1.24,3.46-1.77,5.22-.74,2.45-1.46,4.91-2.08,7.39C96,22.9,95.68,24,97.47,23.77Z"/><path class="cls-1" d="M345.49,26.86a3.74,3.74,0,0,1-1.78-.09c-1.35-.66-1.91-.18-2.73,1a40.89,40.89,0,0,1-6.1,7.59c-2.93,2.63-6.28,1.88-7.16-2.48-.7-3.47.37-6.73,1.48-10,1.8-5.29,3.34-10.66,5.06-16a10.11,10.11,0,0,1,1.55-3,1.86,1.86,0,0,1,1.74-.47,2,2,0,0,1,.86,1.66,16.63,16.63,0,0,1-1.1,3.56c-2.28,5.72-4.72,11.38-6.84,17.15a15.63,15.63,0,0,0-.43,5.39c0,2.29,1.62,3,3.58,1.75a13.64,13.64,0,0,0,4.88-5.64c.52-1.06.69-1.69-.76-2.2A2.63,2.63,0,0,1,336.41,23c.12-1,.84-1.83,2.33-1.26,2.05.78,4.29,1.09,6.33,1.9C347,24.36,347,25.27,345.49,26.86Z"/><path class="cls-1" d="M308.84,22.14a22,22,0,0,1,2-2.23c1.76-1.73,3.28-1.51,4.49.74,1,1.88,1.92,3.82,2.91,5.71a3.68,3.68,0,0,0,.79.78,9.18,9.18,0,0,0,.54-.91c1.42-3.13,2.69-6.33,4.29-9.37a21.17,21.17,0,0,1,3.3-4c.62-.68,1.29-1.73,2.38-.54.77.83.64,2.63-.41,3.11-4,1.83-4.8,5.84-6.39,9.24-.8,1.7-.68,3.81-1.32,5.61a4.2,4.2,0,0,1-2.21,2.14c-.35.14-1.47-1-1.91-1.76-1.35-2.31-2.49-4.74-3.82-7.06-.81-1.42-1.74-1.45-2.63-.21-2.43,3.38-3.51,7.27-4.39,11.26a8.39,8.39,0,0,1-1.24,3.12,1.42,1.42,0,0,1-2.54-.45,33.8,33.8,0,0,1-.45-3.67c-.26-1.52,1.09-1.85,1.73-2.74a48.67,48.67,0,0,0,2.91-5.31C307.53,24.48,308.2,23.42,308.84,22.14Z"/><path class="cls-1" d="M260.46,8c-.74.91-1.86,1.67-1.94,2.54-.69,7-2.93,13.82-2.41,21a9,9,0,0,1-.31,3,1.52,1.52,0,0,1-1.34.64,1.94,1.94,0,0,1-1-1.43c.15-2.46.48-4.92.71-7.38.4-4.33.86-8.65,1.13-13,.16-2.64-.42-2.9-3-2.42a22.9,22.9,0,0,1-5.28.34c-.46,0-.87-1.09-1.31-1.67.57-.31,1.16-.93,1.71-.89,4.42.31,8.22-1.76,12.24-3a18,18,0,0,1,4.63-.86c3.78-.12,7.56,0,11.34,0,.5,0,1-.1,1.51-.05.69.06,1.36.22,2,.33-.55.81-1,2.18-1.66,2.3-1.49.26-3.09-.18-4.64-.21-2.81-.06-5.63-.12-8.44,0A20,20,0,0,0,260.46,8Z"/><path class="cls-1" d="M147.2,16c-1.91,4.76-3.47,9.49-3.76,14.54-.08,1.42-.34,2.84-.33,4.26,0,.52.52,1,.8,1.57a6,6,0,0,0,.94-1.12c2.53-5.16,5.37-10.21,6.65-15.89a31.76,31.76,0,0,0,.41-4.51c0-.38-.14-.87,0-1.13a18.9,18.9,0,0,1,1.58-1.86c.49.6,1.46,1.26,1.39,1.77a40.17,40.17,0,0,1-1.64,7.76c-1.65,4.62-3.63,9.13-5.53,13.66a7.81,7.81,0,0,1-1.66,2.74c-.85.78-2.18,1.8-3.06,1.62-1.33-.29-2.15-1.77-2.25-3.29a45.34,45.34,0,0,1,1.22-13c.71-3.13,1.68-6.21,2.65-9.28a12.18,12.18,0,0,1,1.42-2.42c.56.34,1.49.59,1.61,1a8.27,8.27,0,0,1-.11,2.72A2.07,2.07,0,0,1,147.2,16Z"/><path class="cls-1" d="M131.81,12.52a17.59,17.59,0,0,0,.86-2.08c.37-1.18.6-2.51,2.36-2a2.68,2.68,0,0,1,2.22,3,42,42,0,0,1-1.57,8.75,129.62,129.62,0,0,1-5.36,12.56,3.78,3.78,0,0,1-2.38,1.81c-2,.39-3.41-1.59-2.92-4.28.88-4.82,2-9.57,4.53-13.87.72-1.24,1.45-2.47,2.27-3.81m2.4,4.91a4.39,4.39,0,0,0,.36-1.19,18.54,18.54,0,0,0-.18-2.09,9.8,9.8,0,0,0-1.58,1.63,27.33,27.33,0,0,0-2.68,5c-1,2.93-1.69,6-2.42,9-.09.36.34.86.54,1.29.32-.31.77-.57.93-1C130.88,26,132.54,21.92,134.21,17.43Z"/><path class="cls-1" d="M282.68,7.52c-1,3.35-2.05,6.52-3.08,9.68-.61,1.89-.17,2.4,1.8,2.67A6,6,0,0,1,284.33,21c.46.38.31,1.5.43,2.28a6.08,6.08,0,0,1-2.33-.15c-2.13-1.1-4.31-.73-4.73,1.08-.49,2.12-.62,4.34-1.23,6.42s0,4,.81,5.92a4.24,4.24,0,0,1-1.41,4.84c-.91.62-1.92.66-2-.72a39.43,39.43,0,0,1,0-7.17c.4-3.1,1.21-6.14,1.87-9.2s1.32-6.36,2.13-9.5q1.29-5,2.93-9.93c.18-.55,1.17-.83,1.78-1.24.41.67,1.07,1.32,1.15,2C283.8,6.2,283.06,6.78,282.68,7.52Z"/><path class="cls-1" d="M37.35,37.34c-1.27,3.2-2.47,6.29-3.61,9.4-.21.56-.06,1.29-.37,1.76a8,8,0,0,1-1.61,1.44c-.28-.65-.92-1.39-.78-1.92,2.14-8.09,6.32-15.32,9.69-22.89,2.07-4.65,3.68-9.5,5.39-14.29.25-.7-.12-1.61-.11-2.42s-.11-1.75.3-2.14a2.09,2.09,0,0,1,2.06,0c.62.52,1.34,1.68,1.14,2.28-1.34,4.11-2.78,8.2-4.43,12.19-1.81,4.38-3.88,8.65-5.85,13C38.63,34.91,38,36.07,37.35,37.34Z"/><path class="cls-1" d="M85.06,14.06c-1-1.54-4.26-3.12-5.54-2.55a2.35,2.35,0,0,0-1.07,1.55c-1.45,8.11-1.18,16.31-1.2,24.49a5.6,5.6,0,0,1-.42,2.31,1.79,1.79,0,0,1-1.4.76c-.28,0-.83-.75-.81-1.14.19-3.44.51-6.88.7-10.32,0-.83-.38-1.69-.33-2.53.2-3.61.58-7.21.7-10.83.05-1.68.51-3.45-.75-5.07a3.35,3.35,0,0,1-.15-2.63c.1-.34,1.36-.59,2-.45A53.86,53.86,0,0,1,84,9.6,9.19,9.19,0,0,1,87.22,12a1.87,1.87,0,0,1,0,1.85C86.74,14.26,85.86,14.1,85.06,14.06Z"/><path class="cls-1" d="M111.13,17.62a9.51,9.51,0,0,1,.11-2.52c.1-.31,1.2-.67,1.39-.5.64.57,1.47,1.36,1.5,2.09.08,2.24-.19,4.5-.3,6.75a17.53,17.53,0,0,0,0,2.49c0,.32.35.61.54.92a6,6,0,0,0,.58-.9c1.3-3.11,2.51-6.26,3.91-9.32a3.28,3.28,0,0,1,1.93-1.26,1.54,1.54,0,0,1,1.4.55,1.75,1.75,0,0,1-.35,1.5c-2.75,3.29-4.18,7.2-5.39,11.22a30.1,30.1,0,0,1-1.17,4.12,3.16,3.16,0,0,1-2,1.7c-1.31.11-1.35-1.1-1.37-2.18q-.14-6.26-.38-12.51C111.47,19.11,111.25,18.46,111.13,17.62Z"/><path class="cls-1" d="M305.67,4.16c.13.83.48,1.83.14,2.27-2.65,3.4-3.36,7.49-4.25,11.5-1,4.53-1.85,9.1-2.69,13.67-.18,1,.15,2.08-.08,3.05a5.77,5.77,0,0,1-1.35,2.09,1.14,1.14,0,0,1-1-.27,4.87,4.87,0,0,1-.53-2.33c.76-4.27,1.53-8.55,2.54-12.76,1.21-5,2.6-10,4.08-15A2.69,2.69,0,0,1,305.67,4.16Z"/><path class="cls-1" d="M182.3,23c-.38,3-.84,5.76-1.12,8.56-.14,1.37-.73,2-2,1.82S177.52,32,177.73,31c.8-3.94,2-7.81,2.57-11.78.36-2.58-.18-5.28-.21-7.92a6.16,6.16,0,0,1,.59-2.57,1.63,1.63,0,0,1,1.44-.27,4.72,4.72,0,0,1,1.27,2.5c-.11,3.81-.44,7.61-.72,11.41C182.66,22.54,182.43,22.67,182.3,23Z"/><path class="cls-1" d="M287.68,24.45A35.56,35.56,0,0,0,287,28.4c-.05,1.59.25,3.2.2,4.79,0,.56-.61,1.1-.94,1.65-.57-.52-1.64-1.06-1.62-1.54a63,63,0,0,1,.9-8.44c.82-4.36,1.88-8.68,2.87-13a21.32,21.32,0,0,1,1.23-4.28,2.19,2.19,0,0,1,2.08-.62c.63.32,2,.95,1,2.16-2.53,3.33-2.71,7.46-4,11.22C288.41,21.62,288.06,22.95,287.68,24.45Z"/><path class="cls-1" d="M200.77,9.92c-1.28,4.28-2.58,8.35-3.84,12.44-.67,2.16-1.2,4.37-2,6.49-.23.62-1.15,1-1.75,1.46-.29-.59-.94-1.27-.82-1.75.54-2.12,1.42-4.16,2-6.28,1.3-4.92,2.49-9.87,3.74-14.8a4.81,4.81,0,0,1,.8-2,1.81,1.81,0,0,1,1.6-.54,2.1,2.1,0,0,1,1,1.59A22.55,22.55,0,0,1,200.77,9.92Z"/><path class="cls-1" d="M37.64,13a35.93,35.93,0,0,1-1.1-3.76c-.1-.62.4-1.34.63-2,.77.3,2.12.46,2.23.92,1,4.36,2.64,8.72,1.13,13.31a27.9,27.9,0,0,1-1,3c-.18.38-.81.55-1.23.82-.22-.41-.65-.83-.62-1.22.18-2,.66-3.89.68-5.84A38.9,38.9,0,0,0,37.64,13Z"/><path class="cls-1" d="M85,26.47c-1.91,1.44-3.7.53-5.22-.2-.57-.28-.91-2-.63-2.85.36-1.06,1.39-1.07,2.46-.26.56.42,1.61.18,2.44.24a6,6,0,0,1,2,.18C87.46,24.24,87.14,25.23,85,26.47Z"/></g></g></svg>