<svg id="Contours" xmlns="http://www.w3.org/2000/svg" viewBox="0 0 602.9 247.01"><defs><style>.cls-1{fill:#ff353a;}</style></defs><title>myft</title><path class="cls-1" d="M11.83,228.74c1.67-5.31,3.15-10.19,5.1-14.88a7.44,7.44,0,0,1,3.84-4c2-.65,3.92-.47,5.4,2.43a72.3,72.3,0,0,1,7.59,25.84c.67,6.49.7,13,1.09,19.57a15.71,15.71,0,0,0,.77,3c.73-1.06,1.83-2,2.14-3.19,1.79-6.77,2.75-13.84,5.19-20.35,5.31-14.14,10.45-28.42,18.88-41.15.88-1.33,2-2.51,3-3.78,2-2.65,4.74-4.83,8-3.37,2.92,1.32,3.52,4.56,4.25,7.85,2,9-1.29,17.25-2.54,25.75C72.49,236,68,249.2,68.9,263.11c.18,2.59,1.52,5.08,1.84,7.68.23,1.89,1,4.37-2.33,5S63,274.38,63,271.86a256.2,256.2,0,0,1,1.42-28c1.28-10.63,3.66-21.12,5.38-31.71a89.06,89.06,0,0,0,1-11.58c0-1.49-.73-3-1.13-4.5-1.26,1.11-3,2-3.72,3.38-3.5,6.53-7.26,13-9.94,19.86-4.55,11.62-8.65,23.44-12.36,35.35-1.9,6.11-2.46,12.63-3.83,18.93a10,10,0,0,1-2.39,4.93c-1.24,1.2-3.63,2.46-4.91,2s-2.44-3-2.53-4.66c-.55-10-.34-20.08-1.26-30.05-.61-6.65-2.66-13.18-4.1-19.75-.09-.43-.58-.76-.74-1.19-.63-1.68-1.2-3.39-1.8-5.09-1.07,1.58-2.52,3-3.15,4.77-2.68,7.39-5.53,14.77-7.52,22.36-1.48,5.65-1.78,11.62-2.53,17.46a87,87,0,0,0-.95,9.58c0,2.62-.79,4.58-3.56,3.69C2.6,277,.11,275.13,0,273.72c-.23-4.83.46-9.71.78-14.57.35-5.36.58-10.73,1-16.08.57-6.9,1.48-13.77,1.89-20.67A15.54,15.54,0,0,0,2.42,215C1.08,212.26,2,210.55,4,209.19c1.23-.82,3.76-1.77,4.2-1.28,1.29,1.4,2.62,3.56,2.49,5.31-.4,5.19-1.48,10.33-2.33,15.48-.1.61-.56,1.22-.48,1.77.22,1.44.65,2.84,1,4.26.65-1.14,1.33-2.27,2-3.42A11.35,11.35,0,0,0,11.83,228.74Z" transform="translate(0 -177.95)"/><path class="cls-1" d="M551.08,237c4.08-14.31,7.9-28.38,11.77-42.43.49-1.77,1.38-3.43,1.95-5.18.28-.88.67-2.34.27-2.69a4.06,4.06,0,0,0-3-.68c-8,1.18-15.91,2.89-23.93,3.56-4.16.35-8.54-.74-12.69-1.75-8.09-2-15.4,0-22.7,3.31-1.64.74-3.84.23-5.78.3.34-2.64-2-6.06,1.93-7.65,3-1.21,6.15-2.88,9.23-2.87,6.93,0,13.86,1.28,20.8,1.39a252.84,252.84,0,0,0,26.38-.76c4.53-.4,8.87-3.38,13.37-3.56a50.4,50.4,0,0,1,15.93,2.34c3.11.91,2.89,4.71,1.71,7.22a4.8,4.8,0,0,1-7.21,1.71c-4.26-3.46-5.55-.35-6.65,2.43a158.57,158.57,0,0,0-5.59,16.66c-1,3.76,1.75,5.53,4.94,5.3,7.34-.51,14.64-1.55,22-2.38,1.43-.16,2.85-.44,4.28-.5,3.6-.16,5.62,2,4.51,5.12-.72,2-4.8,5-5.35,4.6-5.74-4-11,1-16.53.45-3.63-.34-7.4,1.52-11.15,1.73-7.69.43-9.44,2-9.75,9.85,0,.66,0,1.33,0,2,0,5.66,2,7,7.26,4.33,3.09-1.55,5.3-1.33,6.67,1.69s-.77,6.07-4.13,7.27c-5.39,1.94-10.07-.75-15-1.81S550.93,240.68,551.08,237Z" transform="translate(0 -177.95)"/><path class="cls-1" d="M429.83,333.74c.71-2.21,1.53-3.87,2.1-5.63,1.28-4,4.87-4.43,7.33-3,1.67,1,3.1,5.4,2.26,7.05-2.68,5.22-3,11.31-7.88,16-3,2.88-3.35,9.33-3.47,14.21-.05,2.08,3.18,4.76,5.5,6.24,2.53,1.61,5.86,1.89,8.64,3.19,4.9,2.29,7.94,0,10.52-3.77,6-8.79,12.84-16.71,22.09-22.35,3.13-1.91,5.63-4.84,8.62-7a13,13,0,0,1,5.8-2.72c1.62-.17,4.31.81,4.87,2,.67,1.46.25,4.44-.88,5.51-2.33,2.2-5.43,3.58-8.24,5.27-4.8,2.9-10.14,5.17-14.27,8.82-4.94,4.36-8.92,9.84-13.14,15-.57.7-.66,2.78-.12,3.27,6.19,5.55,4.9,12,2.24,18.43-2.91,7.06-6.08,14.1-14,17-2.91,1.05-6,1.49-8.46-1.45-2.15-2.59-3.31-5-1.61-8.61,2.78-6,4.63-12.41,7.2-18.5,1-2.33,1.09-3.36-1.64-4-3.15-.76-6.19-1.94-9.3-2.87-8.66-2.59-14.31-8.21-11.13-18.91,2.25-7.56,4.65-15.07,7-23.1m18,57.5c-1,3.06-2.1,6.09-2.93,9.19a2.82,2.82,0,0,0,.81,2.51,3.13,3.13,0,0,0,2.65-.31c4.68-2.83,8.82-13.27,7.42-18.69-.21-.82-1-2-1.64-2.07a2.94,2.94,0,0,0-2.26,1.42C450.57,385.7,449.5,388.24,447.83,391.24Z" transform="translate(0 -177.95)"/><path class="cls-1" d="M451.08,192.49c1.91,7.67-1.51,14.06-4.11,20.52-4,10-9,19.64-12.4,29.83-1.6,4.83-3.14,11.1,2.35,15.37a6.25,6.25,0,0,0,4.67,1.1c2.47-.6,5.56-1.66,5.92,1.37.26,2.18-1.75,5.56-3.76,6.88-3.66,2.4-7.66.7-10.58-2.06-7.73-7.31-9.72-14.77-4.46-27.21,4.91-11.62,9.54-23.37,14.09-35.14.74-1.91.38-4.24.53-6.38-1.51,1.5-3.64,2.73-4.43,4.54q-6.81,15.66-13.06,31.57a138.41,138.41,0,0,0-9.19,39.23c-.18,2.08.13,6.11-4.17,5.6-3.75-.44-3.91-3.33-3.67-6.25,1.17-14.3,4.84-28,9.37-41.6,4.13-12.38,9.19-24.3,16.66-35.07a28.52,28.52,0,0,1,4.22-4.74C444.09,185.46,447.13,186.07,451.08,192.49Z" transform="translate(0 -177.95)"/><path class="cls-1" d="M256.58,199.49c1.25-2.5,2-4.94,3.35-6.93.88-1.28,2.73-2.65,4.1-2.6s3.07,1.65,3.69,3a21.11,21.11,0,0,1,2,7.61c1,21.93-3.33,43.08-9.16,64.07-1.08,3.89-.33,8.25-.85,12.35-.28,2.24-1.44,4.37-2.21,6.55a18.79,18.79,0,0,1-4.05-1.79,3.23,3.23,0,0,1-.61-2.66c1.84-10.21,3.81-20.39,5.61-30.6.08-.47-1-1.61-1.59-1.67-5.08-.53-10.12,4.08-11.1,9.63-1.28,7.22-3.2,14.33-1,21.75,1.14,3.86-2.45,5.42-4.62,7.43-.53.5-2.94,0-3.46-.72-1-1.46-2-3.55-1.75-5.16,1.39-8,3-16,4.93-23.9q5.72-22.8,12-45.46c1-3.67,2.93-7.1,4.68-10.89m-3.25,40.25c5.23-1.26,9.2-2.49,8.52-9.6a17,17,0,0,1,.06-3c.63-7.88,1.34-15.76,1.85-23.65.06-.89-1-1.86-1.5-2.79-.79.82-2,1.51-2.32,2.49-1.67,4.47-3.22,9-4.61,13.56-1.93,6.36-3.79,12.75-5.4,19.2C249.55,237.46,248.68,240.34,253.33,239.74Z" transform="translate(0 -177.95)"/><path class="cls-1" d="M413.08,386c-1.72.11-3.38.37-4.62-.24-3.51-1.71-5-.46-7.09,2.67-4.75,7-9.65,14.17-15.86,19.74-7.61,6.83-16.32,4.88-18.61-6.46-1.82-9,1-17.5,3.84-26,4.67-13.75,8.68-27.71,13.15-41.53a26.28,26.28,0,0,1,4-7.77c.8-1,3.43-1.77,4.53-1.22a5.16,5.16,0,0,1,2.22,4.32,43.22,43.22,0,0,1-2.87,9.26c-5.94,14.86-12.26,29.57-17.78,44.59-1.56,4.24-1.15,9.32-1.11,14,.05,5.95,4.21,7.82,9.3,4.55a35.45,35.45,0,0,0,12.69-14.65c1.35-2.76,1.8-4.39-2-5.73-1.69-.6-3.66-3.83-3.44-5.61.32-2.6,2.19-4.75,6.06-3.27,5.34,2,11.15,2.84,16.45,4.94C416.89,379.51,417,381.86,413.08,386Z" transform="translate(0 -177.95)"/><path class="cls-1" d="M317.83,373.74a57.19,57.19,0,0,1,5.3-5.8c4.58-4.5,8.51-3.92,11.67,1.92,2.64,4.89,5,9.93,7.56,14.85a9.55,9.55,0,0,0,2,2,23.87,23.87,0,0,0,1.41-2.37c3.69-8.13,7-16.46,11.16-24.35,2.06-3.91,5.55-7.09,8.58-10.44,1.61-1.78,3.36-4.49,6.2-1.41,2,2.16,1.66,6.84-1.07,8.09-10.35,4.75-12.47,15.17-16.62,24-2.07,4.42-1.76,9.9-3.43,14.57-.83,2.33-3.41,4.59-5.75,5.57-.9.37-3.82-2.62-5-4.58-3.52-6-6.48-12.31-9.93-18.35-2.12-3.7-4.51-3.78-6.82-.56-6.31,8.78-9.13,18.9-11.4,29.27a21.81,21.81,0,0,1-3.22,8.11,3.68,3.68,0,0,1-6.59-1.16c-.88-3-.62-6.38-1.16-9.54-.68-4,2.84-4.82,4.51-7.12,3.05-4.21,5-9.2,7.55-13.81C314.41,379.81,316.16,377,317.83,373.74Z" transform="translate(0 -177.95)"/><path class="cls-1" d="M192.08,337c-1.92,2.36-4.83,4.35-5.05,6.61-1.8,18.19-7.62,35.92-6.26,54.47a23.41,23.41,0,0,1-.8,7.83c-.24.88-2.76,2-3.5,1.66-1.2-.63-2.58-2.47-2.51-3.72.38-6.4,1.26-12.78,1.85-19.17,1-11.24,2.23-22.48,2.93-33.74.42-6.85-1.08-7.54-7.79-6.28a59.52,59.52,0,0,1-13.72.88c-1.2-.06-2.27-2.82-3.4-4.35,1.48-.81,3-2.41,4.44-2.31,11.48.8,21.36-4.57,31.81-7.78a46.76,46.76,0,0,1,12-2.24c9.82-.32,19.65-.1,29.48-.11,1.31,0,2.63-.26,3.92-.14,1.78.16,3.55.57,5.32.87-1.42,2.09-2.59,5.68-4.32,6-3.87.67-8-.46-12.07-.55-7.31-.17-14.64-.32-21.94-.05C199.09,335,195.72,336.07,192.08,337Z" transform="translate(0 -177.95)"/><path class="cls-1" d="M382.58,219.49c-5,12.37-9,24.66-9.77,37.79-.21,3.7-.87,7.39-.86,11.08,0,1.36,1.35,2.72,2.09,4.08a15.59,15.59,0,0,0,2.44-2.9c6.58-13.42,14-26.54,17.28-41.3.86-3.8.76-7.81,1.07-11.73.08-1-.37-2.26.09-2.95a49.12,49.12,0,0,1,4.11-4.83c1.27,1.55,3.8,3.28,3.61,4.61-1,6.8-2,13.74-4.27,20.17-4.3,12-9.44,23.73-14.38,35.51-1.07,2.56-2.34,5.32-4.31,7.13-2.21,2-5.66,4.69-8,4.2-3.47-.74-5.6-4.6-5.84-8.55A117.86,117.86,0,0,1,369,238.15C370.88,230,373.4,222,375.91,214c.71-2.26,2.44-4.2,3.7-6.29,1.46.89,3.87,1.54,4.18,2.73.57,2.19-.07,4.7-.29,7.06A5.37,5.37,0,0,1,382.58,219.49Z" transform="translate(0 -177.95)"/><path class="cls-1" d="M342.58,210.49a45.72,45.72,0,0,0,2.23-5.42c1-3.06,1.57-6.52,6.13-5.32,3.91,1,6.21,3.95,5.76,7.7-.9,7.65-1.6,15.54-4.09,22.75-3.85,11.16-8.93,21.92-13.94,32.64a9.81,9.81,0,0,1-6.18,4.7c-5.25,1-8.85-4.15-7.58-11.12,2.28-12.52,5.31-24.86,11.78-36,1.87-3.22,3.76-6.43,5.89-9.9m6.25,12.75a11.41,11.41,0,0,0,.94-3.08,48.18,48.18,0,0,0-.48-5.42c-1.39,1.4-3.11,2.6-4.1,4.24-2.55,4.23-5.4,8.45-7,13.06-2.61,7.61-4.38,15.51-6.29,23.34-.23.95.9,2.23,1.39,3.35.82-.82,2-1.49,2.42-2.48C340.17,245.61,344.48,234.92,348.83,223.24Z" transform="translate(0 -177.95)"/><path class="cls-1" d="M249.83,335.74c-2.67,8.72-5.34,16.94-8,25.16-1.58,4.9-.44,6.23,4.68,6.95a15.6,15.6,0,0,1,7.62,3c1.19,1,.8,3.89,1.12,5.93-2-.09-4.41.46-6.06-.39-5.53-2.85-11.19-1.9-12.29,2.82-1.28,5.51-1.6,11.28-3.21,16.68-1.68,5.67,0,10.38,2.1,15.38a11,11,0,0,1-3.68,12.58c-2.37,1.61-5,1.73-5.2-1.87-.35-6.2-.72-12.51.06-18.63,1-8,3.14-16,4.85-23.92,1.78-8.25,3.42-16.53,5.53-24.69q3.36-13,7.62-25.82c.47-1.43,3-2.16,4.63-3.22,1.07,1.75,2.79,3.43,3,5.27C252.75,332.3,250.83,333.82,249.83,335.74Z" transform="translate(0 -177.95)"/><path class="cls-1" d="M97.08,275c-3.31,8.31-6.41,16.35-9.39,24.44-.54,1.46-.17,3.36-1,4.57-1,1.51-2.76,2.51-4.19,3.73-.72-1.68-2.4-3.61-2-5,5.56-21,16.42-39.81,25.19-59.5,5.38-12.07,9.56-24.69,14-37.15.65-1.82-.31-4.17-.28-6.28,0-1.92-.29-4.54.78-5.56s4.24-.89,5.36.06c1.6,1.36,3.48,4.37,3,5.93-3.48,10.68-7.23,21.3-11.53,31.68-4.71,11.37-10.07,22.48-15.2,33.68C100.4,268.69,98.83,271.69,97.08,275Z" transform="translate(0 -177.95)"/><path class="cls-1" d="M221.08,214.49c-2.49-4-11.06-8.12-14.39-6.62a6.11,6.11,0,0,0-2.77,4c-3.78,21.08-3.07,42.39-3.13,63.66a14.55,14.55,0,0,1-1.1,6,4.66,4.66,0,0,1-3.64,2c-.74,0-2.17-1.95-2.11-3,.48-8.95,1.32-17.87,1.82-26.82.12-2.17-1-4.4-.87-6.57.51-9.39,1.52-18.75,1.82-28.14.14-4.37,1.32-9-2-13.18-1.2-1.55-1-4.74-.4-6.85.27-.88,3.54-1.54,5.2-1.18a140,140,0,0,1,18.86,5.05c3.13,1.16,5.87,3.84,8.25,6.34.85.9.79,4.13-.06,4.82C225.46,215,223.15,214.58,221.08,214.49Z" transform="translate(0 -177.95)"/><path class="cls-1" d="M288.83,223.74c0-2.54-.3-4.69.29-6.56.25-.8,3.12-1.75,3.61-1.3,1.65,1.49,3.83,3.53,3.9,5.43.21,5.83-.5,11.69-.79,17.54a45.55,45.55,0,0,0,.05,6.48c.08.83.92,1.59,1.41,2.39a15.57,15.57,0,0,0,1.5-2.34c3.37-8.09,6.52-16.27,10.16-24.23.72-1.57,3.14-2.67,5-3.27a4,4,0,0,1,3.65,1.42c.47.94-.09,2.95-.9,3.91-7.15,8.55-10.86,18.72-14,29.15-1.08,3.56-1.5,7.39-3.05,10.71-.92,2-3.38,4.25-5.31,4.41-3.4.29-3.5-2.87-3.56-5.66q-.36-16.26-1-32.52C289.73,227.61,289.16,225.93,288.83,223.74Z" transform="translate(0 -177.95)"/><path class="cls-1" d="M309.58,327c.33,2.17,1.26,4.75.36,5.9-6.89,8.83-8.74,19.47-11,29.89-2.61,11.78-4.82,23.65-7,35.52-.47,2.57.38,5.42-.21,7.94-.47,2-2.14,3.76-3.52,5.43a3,3,0,0,1-2.48-.71c-.73-1.94-1.72-4.16-1.38-6.05,2-11.1,4-22.22,6.61-33.17,3.15-13.1,6.77-26.1,10.61-39C302.51,329.41,304.87,326.28,309.58,327Z" transform="translate(0 -177.95)"/><path class="cls-1" d="M473.83,237.74c-1,7.74-2.19,15-2.92,22.24-.36,3.55-1.88,5.13-5.27,4.72-3.61-.44-4.25-3.46-3.71-6.09,2.09-10.24,5.21-20.31,6.67-30.62.95-6.7-.47-13.72-.53-20.6a16,16,0,0,1,1.53-6.69c.33-.72,3.37-1.19,3.75-.69,1.47,1.93,3.37,4.32,3.31,6.49-.28,9.89-1.15,19.77-1.87,29.64C474.76,236.53,474.16,236.88,473.83,237.74Z" transform="translate(0 -177.95)"/><path class="cls-1" d="M262.83,379.74c-.58,3.75-1.55,7-1.66,10.26-.14,4.14.65,8.31.53,12.45,0,1.45-1.59,2.86-2.45,4.29-1.47-1.34-4.27-2.75-4.21-4a163.77,163.77,0,0,1,2.34-21.93c2.13-11.34,4.89-22.56,7.46-33.81.86-3.78,1.58-7.68,3.19-11.14.57-1.22,4.11-2.26,5.41-1.61,1.63.82,5.09,2.46,2.71,5.6-6.57,8.65-7,19.39-10.31,29.17C264.72,372.38,263.83,375.83,262.83,379.74Z" transform="translate(0 -177.95)"/><path class="cls-1" d="M521.83,203.74c-3.33,11.11-6.7,21.71-10,32.34-1.74,5.62-3.11,11.36-5.16,16.86-.6,1.61-3,2.56-4.56,3.81-.76-1.53-2.45-3.29-2.13-4.54,1.42-5.52,3.68-10.82,5.14-16.33,3.39-12.78,6.46-25.64,9.73-38.45.45-1.78.94-3.76,2.09-5.07.88-1,3.21-1.9,4.16-1.41a5.45,5.45,0,0,1,2.56,4.13C523.56,197.81,522.5,200.52,521.83,203.74Z" transform="translate(0 -177.95)"/><path class="cls-1" d="M97.83,211.74c-1-3.58-2.36-6.61-2.85-9.77-.25-1.62,1-3.48,1.65-5.23,2,.78,5.52,1.2,5.8,2.38,2.7,11.34,6.86,22.66,2.93,34.59a72.53,72.53,0,0,1-2.64,7.9c-.46,1-2.09,1.44-3.19,2.13-.57-1.06-1.7-2.17-1.61-3.16.46-5.07,1.72-10.11,1.76-15.17C99.72,221,98.5,216.63,97.83,211.74Z" transform="translate(0 -177.95)"/><path class="cls-1" d="M220.83,246.74c-5,3.75-9.62,1.39-13.57-.52-1.49-.72-2.37-5.26-1.63-7.42.94-2.75,3.6-2.77,6.38-.67,1.45,1.09,4.19.46,6.34.61,1.78.12,3.79-.25,5.29.46C227.32,240.94,226.48,243.53,220.83,246.74Z" transform="translate(0 -177.95)"/></svg>